<?xml version="1.0" encoding="UTF-8"?>
<svg id="Capa_1" data-name="Capa 1" xmlns="http://www.w3.org/2000/svg" viewBox="0 0 34.92 27.23">
  <defs>
    <style>
      .cls-1 {
        fill: none;
        stroke: #000;
        stroke-miterlimit: 10;
        stroke-width: 2px;
      }
    </style>
  </defs>
  <path class="cls-1" d="M29.92,8.69c-1.13-.23-2.19-.07-3.11.36-.53.25-1.13-.14-1.13-.72V3.47c0-1.37-1.11-2.47-2.47-2.47H3.47c-1.37,0-2.47,1.11-2.47,2.47v5.45c0,.67.76,1.03,1.29.63,1.03-.76,2.35-1.13,3.77-.91,2.01.32,3.69,1.89,4.11,3.88.68,3.25-1.78,6.12-4.92,6.12-1.12,0-2.14-.37-2.98-.98-.53-.39-1.28-.01-1.28.65v5.45c0,1.37,1.11,2.47,2.47,2.47h19.74c1.37,0,2.47-1.11,2.47-2.47v-4.86c0-.58.6-.97,1.12-.72.63.3,1.34.47,2.09.47,3.12,0,5.57-2.83,4.93-6.06-.39-1.94-1.96-3.49-3.89-3.89Z"/>
</svg>